<?xml version="1.0" encoding="utf-8"?>
<!-- Generator: Adobe Illustrator 26.0.1, SVG Export Plug-In . SVG Version: 6.00 Build 0)  -->
<svg version="1.1" xmlns="http://www.w3.org/2000/svg" xmlns:xlink="http://www.w3.org/1999/xlink" x="0px" y="0px"
	 viewBox="0 0 286 90" style="enable-background:new 0 0 286 90;" xml:space="preserve">
<style type="text/css">
	.Arched_x0020_Green{fill:url(#SVGID_1_);stroke:#FFFFFF;stroke-width:0.25;stroke-miterlimit:1;}
	.st0{fill:#00ADD3;}
	.st1{fill:#00A0AF;}
	.st2{fill:#FFFFFF;}
</style>
<linearGradient id="SVGID_1_" gradientUnits="userSpaceOnUse" x1="-276" y1="-65" x2="-275.2929" y2="-65.7071">
	<stop  offset="0" style="stop-color:#20AC4B"/>
	<stop  offset="0.9831" style="stop-color:#19361A"/>
</linearGradient>
<g id="Artwork">
	<g>
		<g>
			<rect x="-5.95" y="-36.18" class="st0" width="297.4" height="161.8"/>
		</g>
		<g>
			<g>
				<path class="st1" d="M291.31-36.14l0.07,161.61l-297.19,0.11L-5.88-36.03L291.31-36.14 M291.51-36.33l-297.6,0.11l0.07,161.99
					l297.61-0.11L291.51-36.33L291.51-36.33z"/>
			</g>
		</g>
	</g>
	<g>
		<g>
			<path class="st2" d="M39.19,55.3l9.83-10.12c2.06-2.06,3.37-4.12,3.37-6.42c0-2.39-1.36-4.12-4.13-4.12
				c-2.53,0-4.26,1.64-5.11,4.45l-2.95-0.75c0.8-3.89,3.84-6.65,8.15-6.66c4.55,0,7.41,2.9,7.41,6.98c0,2.9-1.73,5.58-4.03,7.96
				l-4.26,4.32c-0.79,0.84-2.44,2.06-2.44,2.06s1.69-0.19,2.95-0.19l8.01,0l0,2.86l-16.82,0.01L39.19,55.3z"/>
		</g>
		<g>
			<path class="st2" d="M59.86,43.86c0-7.26,4.96-12.18,11.24-12.19c6.23,0,11.24,4.91,11.25,12.18c0,7.26-5.01,12.18-11.23,12.18
				C64.83,56.04,59.86,51.12,59.86,43.86z M78.93,43.86c0-5.44-3.05-9.27-7.83-9.27c-4.78,0-7.92,3.84-7.92,9.28
				c0,5.48,3.14,9.27,7.93,9.27C75.89,53.13,78.93,49.34,78.93,43.86z"/>
		</g>
		<g>
			<path class="st2" d="M120.62,34.93l-7.31,0l0-2.9l17.94-0.01l0,2.9l-7.31,0l0.01,20.71l-3.33,0L120.62,34.93z"/>
		</g>
		<g>
			<path class="st2" d="M134.31,32.03l3.56,0l4.31,13.02c0.52,1.54,0.98,3.88,0.98,3.88s0.47-2.34,1.12-3.89l5.38-13.31l0.42,0
				l5.44,13.25c0.75,1.78,1.22,3.89,1.22,3.89s0.37-2.15,0.93-3.89L162,32.01l3.33,0l-8.05,23.9l-0.42,0L151,41.71
				c-0.61-1.5-1.08-3.37-1.08-3.37s-0.47,1.92-1.08,3.37l-5.94,14.2l-0.47,0L134.31,32.03z"/>
		</g>
		<g>
			<path class="st2" d="M169.23,32.01L184.18,32v2.9l-11.62,0.01l0.01,9.65l10.21,0l0,2.77l-10.22,0l0.01,5.43l12.09-0.01l0,2.86
				l-15.42,0.01L169.23,32.01z"/>
		</g>
		<g>
			<path class="st2" d="M194.43,41.6c-1.22-1.31-2.53-3.28-2.53-3.28s0.33,2.15,0.33,3.98l0.01,13.3l-3.09,0l-0.01-23.89h0.47
				l12.89,14.18c1.31,1.41,2.58,3.33,2.58,3.33s-0.24-2.16-0.24-3.94l-0.01-13.3l3.09,0l0.01,23.94h-0.47L194.43,41.6z"/>
		</g>
		<g>
			<path class="st2" d="M219.19,34.89l-7.3,0v-2.9l17.94-0.01l0,2.9l-7.31,0l0.01,20.71h-3.33L219.19,34.89z"/>
		</g>
		<g>
			<path class="st2" d="M241.79,48.19l-8.91-16.21l3.7,0l5.3,9.79c0.89,1.64,1.6,4.03,1.6,4.03s0.79-2.44,1.59-4.03l5.2-9.79l3.56,0
				l-8.71,16.12l0.01,7.5l-3.33,0L241.79,48.19z"/>
		</g>
		<g>
			<rect x="96.26" y="15.52" class="st2" width="2.75" height="56.71"/>
		</g>
		<g>
			<g>
				<path class="st2" d="M177.56,62.76l3.44,0l0,0.73h-2.63v1.21l2.33,0v0.73l-2.33,0v1.25l2.66,0v0.73l-3.48,0V62.76z"/>
				<path class="st2" d="M177.44,67.53v-4.89l3.69,0l0,0.98h-2.63v0.96l2.33,0v0.97l-2.33,0v1.01l2.66,0v0.97L177.44,67.53z
					 M177.68,62.89v4.41l3.24,0v-0.48l-2.66,0v-1.49l2.33,0v-0.49l-2.33,0v-1.45h2.63l0-0.49L177.68,62.89z"/>
			</g>
			<g>
				<path class="st2" d="M189.35,65.57l-1.85-2.81l0.96,0l1.31,2.06l1.31-2.06h0.94l-1.84,2.8l0,1.85l-0.82,0L189.35,65.57z"/>
				<path class="st2" d="M189.23,67.53l0-1.92l-1.95-2.97l1.25,0l0.04,0.06l1.2,1.9l1.25-1.96h1.23l-1.95,2.95l0,1.94L189.23,67.53z
					 M187.73,62.88l1.75,2.65l0,1.75l0.58,0l0-1.77l1.74-2.64h-0.65l-1.38,2.16l-1.37-2.16L187.73,62.88z"/>
			</g>
			<g>
				<path class="st2" d="M198.72,62.76l3.44,0l0,0.73h-2.62v1.21l2.33,0v0.73l-2.33,0v1.25l2.66,0l0,0.73l-3.48,0V62.76z"/>
				<path class="st2" d="M198.6,67.52v-4.89l3.69,0l-0.01,0.98h-2.62v0.96l2.33,0v0.97l-2.33,0v1.01l2.66,0l0,0.97L198.6,67.52z
					 M198.84,62.88v4.4l3.23,0l0-0.48l-2.66,0V65.3l2.33,0v-0.49l-2.33,0v-1.45h2.63l0-0.49L198.84,62.88z"/>
			</g>
			<g>
				<path class="st2" d="M208.94,65.09v-0.01c0-1.32,0.99-2.41,2.4-2.41c0.86,0,1.38,0.3,1.82,0.72L212.63,64
					c-0.37-0.35-0.77-0.58-1.3-0.58c-0.89,0-1.54,0.73-1.53,1.64v0.01c0,0.91,0.65,1.65,1.54,1.65c0.57,0,0.94-0.23,1.33-0.6
					l0.52,0.53c-0.48,0.5-1.01,0.82-1.89,0.82C209.95,67.48,208.94,66.42,208.94,65.09z"/>
				<path class="st2" d="M211.3,67.6c-1.39,0-2.48-1.1-2.49-2.51v-0.01c0-1.44,1.08-2.53,2.52-2.53c0.78,0,1.35,0.23,1.9,0.76
					l0.08,0.08l-0.68,0.79l-0.09-0.09c-0.4-0.38-0.78-0.55-1.22-0.55c-0.37,0-0.72,0.14-0.97,0.4c-0.28,0.29-0.44,0.68-0.44,1.12
					c0,0.45,0.16,0.86,0.45,1.15c0.26,0.26,0.59,0.4,0.96,0.4c0,0,0,0,0,0c0.54,0,0.87-0.22,1.25-0.57l0.09-0.08l0.69,0.7
					l-0.08,0.09C212.7,67.34,212.11,67.6,211.3,67.6z M209.06,65.09c0,1.29,0.97,2.27,2.25,2.27c0.7,0,1.21-0.2,1.72-0.7l-0.36-0.36
					c-0.38,0.34-0.76,0.56-1.33,0.56c0,0,0,0,0,0c-0.43,0-0.83-0.17-1.14-0.47c-0.34-0.33-0.52-0.8-0.52-1.31
					c0-0.51,0.18-0.97,0.51-1.31c0.3-0.3,0.71-0.47,1.15-0.47c0.47,0,0.87,0.16,1.29,0.53l0.37-0.43c-0.35-0.31-0.82-0.61-1.65-0.61
					c-1.3,0-2.28,0.98-2.28,2.29l-0.12,0.01H209.06z"/>
			</g>
			<g>
				<path class="st2" d="M221.67,62.71l0.76,0l2.05,4.68h-0.86l-0.47-1.12h-2.2l-0.48,1.12l-0.84,0L221.67,62.71z M222.84,65.55
					l-0.81-1.86l-0.8,1.86L222.84,65.55z"/>
				<path class="st2" d="M220.54,67.52l-1.1,0l2.15-4.93l0.92,0l0.03,0.07l2.12,4.85h-1.13l-0.47-1.12h-2.04L220.54,67.52z
					 M219.81,67.27l0.57,0l0.48-1.12h2.36l0.47,1.12h0.6l-1.94-4.44l-0.6,0L219.81,67.27z M221.05,65.67l0.98-2.29l0.99,2.28
					L221.05,65.67z M222.04,63.99l-0.61,1.43l1.23,0L222.04,63.99z"/>
			</g>
			<g>
				<path class="st2" d="M231.25,62.74l2.07,0c0.59,0,1.04,0.17,1.34,0.46c0.24,0.25,0.39,0.6,0.39,1v0.01
					c0,0.76-0.46,1.22-1.11,1.41l1.26,1.76h-0.96l-1.14-1.62l-1.02,0v1.62l-0.82,0V62.74z M233.26,65.05c0.58,0,0.95-0.31,0.95-0.78
					v-0.01c0-0.5-0.36-0.77-0.96-0.77h-1.19v1.56H233.26z"/>
				<path class="st2" d="M232.18,67.51l-1.06,0v-4.89l2.19,0c0.6,0,1.1,0.17,1.43,0.5c0.28,0.28,0.42,0.66,0.42,1.09
					c0,0.72-0.37,1.24-1.04,1.48l1.3,1.82h-1.26l-1.14-1.62l-0.84,0V67.51z M231.37,67.27l0.57,0v-1.62l1.21,0l1.14,1.62h0.66
					l-1.22-1.71l0.16-0.05c0.47-0.13,1.02-0.47,1.02-1.29c0-0.38-0.12-0.7-0.35-0.93c-0.29-0.28-0.72-0.43-1.26-0.43l-1.94,0V67.27z
					 M233.26,65.17h-1.32v-1.81h1.31c0.68,0,1.09,0.33,1.09,0.89C234.33,64.81,233.9,65.17,233.26,65.17z M232.18,64.92h1.07
					c0.51,0,0.83-0.25,0.83-0.66c0-0.58-0.53-0.66-0.84-0.66h-1.06V64.92z"/>
			</g>
			<g>
				<path class="st2" d="M242.02,62.73l3.44,0v0.73h-2.63l0,1.21h2.33v0.73h-2.33v1.25h2.66v0.73l-3.48,0V62.73z"/>
				<path class="st2" d="M241.9,67.51v-4.89l3.69,0v0.98h-2.63l0,0.96h2.33v0.97h-2.33v1.01h2.66v0.97L241.9,67.51z M242.14,62.86
					v4.41l3.24,0v-0.48h-2.66v-1.49h2.33V64.8h-2.33l0-1.45h2.63v-0.49L242.14,62.86z"/>
			</g>
		</g>
	</g>
</g>
<g id="Sarah_K">
</g>
</svg>
